<svg xmlns="http://www.w3.org/2000/svg" viewBox="0 0 1024 1024">
  <defs>
    <linearGradient id="card-fill" x1="246" x2="794" y1="278" y2="698" gradientUnits="userSpaceOnUse">
      <stop stop-color="#f5fff5" />
      <stop offset="1" stop-color="#b6ffc6" />
    </linearGradient>
    <linearGradient id="stick-fill" x1="488" x2="604" y1="512" y2="684" gradientUnits="userSpaceOnUse">
      <stop stop-color="#7cff91" />
      <stop offset="1" stop-color="#1bd85c" />
    </linearGradient>
    <filter id="soft-shadow" x="120" y="160" width="784" height="696" color-interpolation-filters="sRGB" filterUnits="userSpaceOnUse">
      <feDropShadow dx="0" dy="30" flood-color="#000" flood-opacity=".32" stdDeviation="28" />
    </filter>
  </defs>
  <g filter="url(#soft-shadow)">
    <path d="M284 172h356l112 110v292l-96 96H284l-96-96V270l96-98Z" fill="#07140d" stroke="#69ff89" stroke-width="34" stroke-linejoin="round" />
    <path d="M348 268h276l64 64v190l-64 64H348l-64-64V332l64-64Z" fill="url(#card-fill)" />
    <path d="M396 368h138" fill="none" stroke="#07140d" stroke-linecap="round" stroke-width="42" />
    <circle cx="392" cy="472" r="34" fill="#07140d" />
    <circle cx="504" cy="472" r="34" fill="#07140d" />
    <path d="M598 380h120" fill="none" stroke="#07140d" stroke-linecap="round" stroke-width="38" />
    <path d="M658 320v120" fill="none" stroke="#07140d" stroke-linecap="round" stroke-width="38" />
    <path d="M560 548c31 0 56 24 59 54l14 174c3 28-20 52-48 52h-50c-28 0-51-24-48-52l14-174c3-30 28-54 59-54Z" fill="url(#stick-fill)" stroke="#07140d" stroke-width="28" />
    <circle cx="560" cy="546" r="68" fill="#69ff89" stroke="#07140d" stroke-width="28" />
  </g>
  <text x="512" y="916" fill="#f5fff5" font-family="Arial, Helvetica, sans-serif" font-size="106" font-weight="800" letter-spacing="0" text-anchor="middle">LocalStack</text>
</svg>
